<svg width="26" height="26" viewBox="0 0 26 26" fill="none" xmlns="http://www.w3.org/2000/svg">
<path d="M13 1.85714C19.1286 1.85714 24.1429 6.87143 24.1429 13C24.1429 19.1286 19.1286 24.1429 13 24.1429C6.87143 24.1429 1.85714 19.1286 1.85714 13C1.85714 6.87143 6.87143 1.85714 13 1.85714ZM13 0C5.85 0 0 5.85 0 13C0 20.15 5.85 26 13 26C20.15 26 26 20.15 26 13C26 5.85 20.15 0 13 0Z" fill="white"/>
<path d="M20.4294 12.0714H13.9294V5.57141H12.0723V12.0714H5.57227V13.9286H12.0723V20.4286H13.9294V13.9286H20.4294V12.0714Z" fill="white"/>
</svg>
