<svg width="23" height="23" viewBox="0 0 23 23" fill="none" xmlns="http://www.w3.org/2000/svg">
<path d="M16.1632 6.46498C18.83 9.13178 18.83 13.4956 16.1632 16.1624C13.4964 18.8292 9.13252 18.8292 6.46572 16.1624C3.79892 13.4956 3.79892 9.13178 6.46572 6.46498C9.13252 3.79817 13.4964 3.79817 16.1632 6.46498ZM16.9713 5.65685C13.86 2.54558 8.76887 2.54558 5.6576 5.65685C2.54633 8.76812 2.54633 13.8593 5.6576 16.9706C8.76887 20.0818 13.86 20.0818 16.9713 16.9706C20.0826 13.8593 20.0826 8.76812 16.9713 5.65685Z" fill="#0B3A5A"/>
<path d="M14.951 14.1425L12.1226 11.3141L14.951 8.48567L14.1429 7.67755L11.3145 10.506L8.48603 7.67755L7.6779 8.48567L10.5063 11.3141L7.6779 14.1425L8.48603 14.9506L11.3145 12.1222L14.1429 14.9506L14.951 14.1425Z" fill="#0B3A5A"/>
</svg>
