<svg width="50" height="50" viewBox="0 0 50 50" fill="none" xmlns="http://www.w3.org/2000/svg">
<path d="M25 0C20.0555 0 15.222 1.46622 11.1108 4.21326C6.99952 6.96029 3.79521 10.8648 1.90302 15.4329C0.010832 20.0011 -0.484251 25.0277 0.480379 29.8773C1.44501 34.7268 3.82603 39.1813 7.32234 42.6777C10.8187 46.174 15.2732 48.555 20.1227 49.5196C24.9723 50.4843 29.9989 49.9892 34.5671 48.097C39.1352 46.2048 43.0397 43.0005 45.7867 38.8892C48.5338 34.778 50 29.9445 50 25C50 18.3696 47.3661 12.0107 42.6777 7.32233C37.9893 2.63392 31.6304 0 25 0V0ZM22.8125 10.4687C22.8125 9.88859 23.043 9.33219 23.4532 8.92195C23.8634 8.51172 24.4198 8.28125 25 8.28125C25.5802 8.28125 26.1366 8.51172 26.5468 8.92195C26.957 9.33219 27.1875 9.88859 27.1875 10.4687V29.2187C27.1875 29.7989 26.957 30.3553 26.5468 30.7655C26.1366 31.1758 25.5802 31.4062 25 31.4062C24.4198 31.4062 23.8634 31.1758 23.4532 30.7655C23.043 30.3553 22.8125 29.7989 22.8125 29.2187V10.4687ZM25 41.4062C24.4437 41.4062 23.9 41.2413 23.4375 40.9322C22.975 40.6232 22.6145 40.184 22.4016 39.67C22.1887 39.1561 22.133 38.5906 22.2415 38.045C22.3501 37.4995 22.6179 36.9983 23.0113 36.605C23.4046 36.2117 23.9057 35.9438 24.4513 35.8353C24.9969 35.7268 25.5624 35.7825 26.0763 35.9953C26.5902 36.2082 27.0295 36.5687 27.3385 37.0312C27.6476 37.4937 27.8125 38.0375 27.8125 38.5937C27.8125 39.3397 27.5162 40.055 26.9887 40.5825C26.4613 41.1099 25.7459 41.4062 25 41.4062Z" fill="#FF3C3C"/>
</svg>
