<svg width="20" height="20" viewBox="0 0 20 20" fill="none" xmlns="http://www.w3.org/2000/svg">
<path d="M3.5825 18.5625C3.485 19.1175 4.0325 19.5512 4.515 19.3037L10.0025 16.4837L15.4887 19.3037C15.9712 19.5512 16.5187 19.1175 16.4212 18.5637L15.3837 12.6512L19.7862 8.45625C20.1987 8.06375 19.9862 7.34625 19.4337 7.26875L13.3112 6.39875L10.5812 0.989995C10.5292 0.880356 10.4472 0.787724 10.3446 0.722861C10.2421 0.657998 10.1232 0.623566 10.0019 0.623566C9.88052 0.623566 9.76166 0.657998 9.65911 0.722861C9.55655 0.787724 9.4745 0.880356 9.42249 0.989995L6.6925 6.4L0.569995 7.27C0.0187452 7.3475 -0.195005 8.065 0.216245 8.4575L4.62 12.6525L3.5825 18.565V18.5625ZM9.71375 15.1037L5.10625 17.4712L5.97374 12.525C5.99407 12.4111 5.98612 12.294 5.95059 12.184C5.91506 12.0739 5.85305 11.9742 5.77 11.8937L2.1375 8.43125L7.2025 7.71125C7.30738 7.69541 7.40685 7.65438 7.49241 7.59168C7.57797 7.52899 7.64705 7.44649 7.69375 7.35125L10 2.77875L12.3087 7.35125C12.3554 7.44649 12.4245 7.52899 12.5101 7.59168C12.5956 7.65438 12.6951 7.69541 12.8 7.71125L17.865 8.43L14.2325 11.8925C14.1492 11.9731 14.0871 12.073 14.0516 12.1833C14.0161 12.2936 14.0082 12.4109 14.0287 12.525L14.8962 17.4712L10.2887 15.1037C10.1996 15.0578 10.1009 15.0338 10.0006 15.0338C9.90038 15.0338 9.80159 15.0578 9.71249 15.1037H9.71375Z" fill="black"/>
</svg>
